<?xml version="1.0" standalone="no"?>
<!DOCTYPE svg PUBLIC "-//W3C//DTD SVG 20010904//EN"
 "http://www.w3.org/TR/2001/REC-SVG-20010904/DTD/svg10.dtd">
<svg version="1.0" xmlns="http://www.w3.org/2000/svg"
 width="526.000000pt" height="526.000000pt" viewBox="0 0 526.000000 526.000000"
 preserveAspectRatio="xMidYMid meet">
<metadata>
Created by potrace 1.14, written by Peter Selinger 2001-2017
</metadata>
<g transform="translate(0.000000,526.000000) scale(0.100000,-0.100000)"
fill="#000000" stroke="none">
<path d="M2047 4538 c-327 -326 -612 -610 -633 -630 -22 -20 -44 -43 -51 -50
-6 -7 -33 -33 -60 -57 -62 -58 -260 -251 -771 -750 -281 -275 -412 -410 -412
-424 0 -23 1215 -1247 1238 -1247 9 0 11 -7 7 -19 -4 -15 15 -39 87 -108 51
-48 169 -162 263 -253 183 -177 302 -292 485 -466 63 -60 171 -164 240 -230
199 -193 200 -194 226 -194 18 0 79 54 236 207 224 219 414 403 638 618 311
299 403 390 409 406 5 14 525 572 837 899 50 52 118 124 150 160 32 36 91 99
130 140 75 80 87 99 74 120 -14 23 -1174 1181 -1192 1191 -10 5 -18 16 -18 24
0 7 -9 16 -19 20 -11 3 -293 282 -627 620 -357 362 -614 615 -625 615 -10 0
-266 -247 -612 -592z m-643 -721 c13 -20 -7 -40 -679 -692 -214 -208 -417
-404 -450 -436 l-60 -59 593 -593 c414 -414 592 -599 592 -613 0 -23 -21 -37
-43 -28 -23 8 -1222 1226 -1219 1238 3 14 348 353 1147 1128 44 43 86 77 94
76 8 -2 19 -11 25 -21z m3138 -574 c324 -324 588 -594 588 -602 0 -13 -80
-100 -481 -526 -47 -49 -161 -171 -254 -270 -399 -426 -448 -476 -464 -473 -9
2 -17 13 -19 26 -3 17 13 41 59 90 35 37 198 211 363 387 166 176 373 396 460
490 88 93 182 194 210 223 l51 52 -573 573 c-314 314 -572 577 -572 583 0 13
21 34 34 34 6 0 275 -264 598 -587z"/>
</g>
</svg>
